<svg width="237" height="98" viewBox="0 0 237 98" fill="none" xmlns="http://www.w3.org/2000/svg">
<path d="M38.9773 1.45454V48H30.4773L10.2273 18.7045H9.88636V48H0.0454545V1.45454H8.68182L28.7727 30.7273H29.1818V1.45454H38.9773ZM80.2807 24.7273C80.2807 29.803 79.3186 34.1212 77.3943 37.6818C75.4852 41.2424 72.8792 43.9621 69.5761 45.8409C66.2883 47.7045 62.5913 48.6364 58.4852 48.6364C54.3489 48.6364 50.6367 47.697 47.3489 45.8182C44.061 43.9394 41.4625 41.2197 39.5534 37.6591C37.6443 34.0985 36.6898 29.7879 36.6898 24.7273C36.6898 19.6515 37.6443 15.3333 39.5534 11.7727C41.4625 8.21212 44.061 5.5 47.3489 3.63636C50.6367 1.75757 54.3489 0.81818 58.4852 0.81818C62.5913 0.81818 66.2883 1.75757 69.5761 3.63636C72.8792 5.5 75.4852 8.21212 77.3943 11.7727C79.3186 15.3333 80.2807 19.6515 80.2807 24.7273ZM70.3034 24.7273C70.3034 21.4394 69.811 18.6667 68.8261 16.4091C67.8564 14.1515 66.4852 12.4394 64.7125 11.2727C62.9398 10.1061 60.864 9.52273 58.4852 9.52273C56.1064 9.52273 54.0307 10.1061 52.258 11.2727C50.4852 12.4394 49.1064 14.1515 48.1216 16.4091C47.1519 18.6667 46.667 21.4394 46.667 24.7273C46.667 28.0152 47.1519 30.7879 48.1216 33.0455C49.1064 35.303 50.4852 37.0152 52.258 38.1818C54.0307 39.3485 56.1064 39.9318 58.4852 39.9318C60.864 39.9318 62.9398 39.3485 64.7125 38.1818C66.4852 37.0152 67.8564 35.303 68.8261 33.0455C69.811 30.7879 70.3034 28.0152 70.3034 24.7273ZM79.8905 48V1.45454H98.2541C101.769 1.45454 104.769 2.08333 107.254 3.34091C109.754 4.58333 111.656 6.34848 112.959 8.63636C114.277 10.9091 114.936 13.5833 114.936 16.6591C114.936 19.75 114.269 22.4091 112.936 24.6364C111.603 26.8485 109.671 28.5455 107.14 29.7273C104.625 30.9091 101.58 31.5 98.0041 31.5H85.7086V23.5909H96.4132C98.292 23.5909 99.8526 23.3333 101.095 22.8182C102.337 22.303 103.262 21.5303 103.868 20.5C104.489 19.4697 104.8 18.1894 104.8 16.6591C104.8 15.1136 104.489 13.8106 103.868 12.75C103.262 11.6894 102.33 10.8864 101.072 10.3409C99.8299 9.7803 98.2617 9.5 96.3677 9.5H89.7314V48H79.8905ZM105.027 26.8182L116.595 48H105.731L94.4132 26.8182H105.027ZM116.13 1.45454H128.267L141.085 32.7273H141.63L154.449 1.45454H166.585V48H157.04V17.7045H156.653L144.608 47.7727H138.108L126.062 17.5909H125.676V48H116.13V1.45454ZM171.196 48H160.65L176.718 1.45454H189.4L205.446 48H194.9L183.241 12.0909H182.878L171.196 48ZM170.537 29.7045H195.446V37.3864H170.537V29.7045ZM205.928 48V1.45454H215.769V39.8864H235.723V48H205.928ZM0.0454545 98V51.4545H31.4091V59.5682H9.88636V70.6591H29.7955V78.7727H9.88636V89.8864H31.5V98H0.0454545ZM73.0448 51.4545V98H64.5448L44.2948 68.7045H43.9539V98H34.113V51.4545H42.7493L62.8402 80.7273H63.2493V51.4545H73.0448ZM81.2645 51.4545L92.5145 86.8182H92.9464L104.219 51.4545H115.128L99.0827 98H86.4009L70.3327 51.4545H81.2645Z" fill="white"/>
<path d="M119.912 53.5455V71H118.318V53.5455H119.912ZM123.833 71V53.5455H129.466C130.705 53.5455 131.739 53.7699 132.568 54.2188C133.404 54.6619 134.031 55.2784 134.452 56.0682C134.878 56.8523 135.091 57.7528 135.091 58.7699C135.091 59.7869 134.878 60.6847 134.452 61.4631C134.031 62.2415 133.406 62.8494 132.577 63.2869C131.747 63.7244 130.719 63.9432 129.492 63.9432H124.693V62.4858H129.449C130.358 62.4858 131.114 62.3352 131.716 62.0341C132.324 61.733 132.776 61.304 133.071 60.7472C133.372 60.1903 133.523 59.5312 133.523 58.7699C133.523 58.0085 133.372 57.3437 133.071 56.7756C132.77 56.2017 132.316 55.7585 131.708 55.446C131.105 55.1335 130.344 54.9773 129.423 54.9773H125.426V71H123.833ZM131.529 63.125L135.824 71H133.983L129.73 63.125H131.529ZM152.563 62.2727C152.563 64.0909 152.239 65.6733 151.591 67.0199C150.944 68.3608 150.051 69.4006 148.915 70.1392C147.784 70.8722 146.483 71.2386 145.012 71.2386C143.54 71.2386 142.236 70.8722 141.1 70.1392C139.969 69.4006 139.08 68.3608 138.432 67.0199C137.79 65.6733 137.469 64.0909 137.469 62.2727C137.469 60.4545 137.79 58.875 138.432 57.5341C139.08 56.1875 139.972 55.1477 141.108 54.4148C142.245 53.6761 143.546 53.3068 145.012 53.3068C146.483 53.3068 147.784 53.6761 148.915 54.4148C150.051 55.1477 150.944 56.1875 151.591 57.5341C152.239 58.875 152.563 60.4545 152.563 62.2727ZM151.012 62.2727C151.012 60.7102 150.75 59.3722 150.228 58.2585C149.705 57.1392 148.992 56.2841 148.088 55.6932C147.185 55.1023 146.159 54.8068 145.012 54.8068C143.87 54.8068 142.847 55.1023 141.944 55.6932C141.04 56.2841 140.324 57.1364 139.796 58.25C139.273 59.3636 139.012 60.7045 139.012 62.2727C139.012 63.8352 139.273 65.1733 139.796 66.2869C140.319 67.4006 141.032 68.2557 141.935 68.8523C142.838 69.4432 143.864 69.7386 145.012 69.7386C146.159 69.7386 147.185 69.4432 148.088 68.8523C148.997 68.2614 149.713 67.4091 150.236 66.2955C150.759 65.1761 151.017 63.8352 151.012 62.2727ZM169.291 53.5455V71H167.74L157.427 56.3835H157.291V71H155.697V53.5455H157.24L167.586 68.179H167.723V53.5455H169.291ZM173.212 53.5455H175.053L181.385 68.75H181.538L187.871 53.5455H189.712V71H188.212V56.9119H188.075L182.186 71H180.737L174.848 56.9119H174.712V71H173.212V53.5455ZM193.632 71V53.5455H203.757V54.9773H195.226V61.5483H203.22V62.9801H195.226V69.5682H203.928V71H193.632ZM220.756 53.5455V71H219.205L208.892 56.3835H208.756V71H207.162V53.5455H208.705L219.051 68.179H219.188V53.5455H220.756ZM223.62 54.9773V53.5455H236.276V54.9773H230.745V71H229.151V54.9773H223.62Z" fill="white"/>
</svg>
